<svg fill="none" height="100%" width="100%" viewBox="0 0 2560 1280" xmlns:xlink="http://www.w3.org/1999/xlink" xmlns="http://www.w3.org/2000/svg"><g transform="matrix(1.333,0,0,1.355,0.032,-0.001)" id="i0"><rect y="0" x="0" fill="#0d1117" height="945" width="1920" /></g><g transform="matrix(1.333,0,0,1.355,1213.335,551.925)" id="i1"><g transform="matrix(1,0,0,1,35.693,96.527)" visibility="visible" id="i2"><animate repeatCount="indefinite" begin="0s" calcMode="discrete" dur="8.001s" values="visible; hidden; hidden" keyTimes="0; 0.125003; 1" attributeName="visibility" /><g id="i3"><path fill="#ffffff" fill-rule="evenodd" d="M323.075,-22.401C323.075,-22.401,323.075,0,323.075,0C323.075,0,351.662,0,351.662,0C351.662,0,351.662,-22.401,351.662,-22.401C351.662,-22.401,323.075,-22.401,323.075,-22.401ZM352.497,-117.023C352.497,-117.023,322.406,-117.023,322.406,-117.023C322.406,-117.023,323.075,-36.277,323.075,-36.277C323.075,-36.277,351.829,-36.277,351.829,-36.277C351.829,-36.277,352.497,-117.023,352.497,-117.023Z" /></g><g id="i4"><path fill="#ffffff" fill-rule="evenodd" d="M245.33,-23.572C214.068,-23.572,201.864,-34.606,201.864,-58.679C201.864,-82.585,213.901,-93.451,245.33,-93.451C276.759,-93.451,288.795,-82.418,288.795,-58.679C288.795,-34.773,276.592,-23.572,245.33,-23.572ZM245.33,1.672C296.653,1.672,318.887,-19.894,318.887,-58.679C318.887,-97.296,296.653,-118.694,245.33,-118.694C193.84,-118.694,171.773,-97.464,171.773,-58.679C171.773,-19.727,193.84,1.672,245.33,1.672Z" /></g><g id="i5"><path fill="#ffffff" d="M85.051,-25.243C85.051,-25.243,85.051,-117.023,85.051,-117.023C85.051,-117.023,54.96,-117.023,54.96,-117.023C54.96,-117.023,54.96,0,54.96,0C54.96,0,175.326,0,175.326,0C175.326,0,175.326,-25.243,175.326,-25.243C175.326,-25.243,85.051,-25.243,85.051,-25.243Z" /></g><g id="i5"><path fill="#ffffff" d="M-38.014,-25.243C-38.014,-25.243,-38.014,-117.023,-38.014,-117.023C-38.014,-117.023,-68.106,-117.023,-68.106,-117.023C-68.106,-117.023,-68.106,0,-68.106,0C-68.106,0,52.261,0,52.261,0C52.261,0,52.261,-25.243,52.261,-25.243C52.261,-25.243,-38.014,-25.243,-38.014,-25.243Z" /></g><g id="i6"><path fill="#ffffff" d="M-69.951,-93.117C-69.951,-93.117,-69.951,-117.023,-69.951,-117.023C-69.951,-117.023,-193.661,-117.023,-193.661,-117.023C-193.661,-117.023,-193.661,0,-193.661,0C-193.661,0,-69.951,0,-69.951,0C-69.951,0,-69.951,-23.906,-69.951,-23.906C-69.951,-23.906,-163.569,-23.906,-163.569,-23.906C-163.569,-23.906,-163.569,-47.645,-163.569,-47.645C-163.569,-47.645,-69.951,-47.645,-69.951,-47.645C-69.951,-47.645,-69.951,-69.378,-69.951,-69.378C-69.951,-69.378,-163.569,-69.378,-163.569,-69.378C-163.569,-69.378,-163.569,-93.117,-163.569,-93.117C-163.569,-93.117,-69.951,-93.117,-69.951,-93.117Z" /></g><g id="i7"><path fill="#ffffff" d="M-226.803,-117.023C-226.803,-117.023,-226.803,-71.217,-226.803,-71.217C-226.803,-71.217,-322.093,-71.217,-322.093,-71.217C-322.093,-71.217,-322.093,-117.023,-322.093,-117.023C-322.093,-117.023,-352.184,-117.023,-352.184,-117.023C-352.184,-117.023,-352.184,0,-352.184,0C-352.184,0,-322.093,0,-322.093,0C-322.093,0,-322.093,-45.806,-322.093,-45.806C-322.093,-45.806,-226.803,-45.806,-226.803,-45.806C-226.803,-45.806,-226.803,0,-226.803,0C-226.803,0,-196.711,0,-196.711,0C-196.711,0,-196.711,-117.023,-196.711,-117.023C-196.711,-117.023,-226.803,-117.023,-226.803,-117.023Z" /></g></g></g><g transform="matrix(1.333,0,0,1.355,1213.335,551.925)" id="i1"><g transform="matrix(1,0,0,1,35.693,96.527)" visibility="hidden" id="i8"><animate repeatCount="indefinite" begin="0s" calcMode="discrete" dur="8.001s" values="hidden; visible; hidden; hidden" keyTimes="0; 0.125003; 0.250007; 1" attributeName="visibility" /><g id="i9"><path fill="#ffffff" fill-rule="evenodd" d="M152.158,5.715C136.034,5.715,130.217,-9.287,130.217,-29.493C130.217,-42.045,132.258,-67.149,152.158,-67.149C171.956,-67.149,174.201,-41.943,174.201,-29.493C174.201,-9.695,168.384,5.715,152.158,5.715ZM152.158,-76.64C120.522,-76.64,104.092,-54.291,104.092,-31.534C104.092,-24.697,105.01,-18.267,106.847,-12.552C106.847,-12.552,83.682,-12.552,83.682,-12.552C83.682,-12.552,83.682,0,83.682,0C83.682,0,113.583,0,113.583,0C121.135,9.389,133.483,15.104,152.158,15.104C174.507,15.104,200.326,5.204,200.326,-31.534C200.326,-53.475,184.1,-76.64,152.158,-76.64Z" /></g><g id="i10"><path fill="#ffffff" d="M93.887,-12.552C93.887,-12.552,83.375,-12.552,83.375,-12.552C83.375,-12.552,83.375,-12.756,83.375,-12.756C83.681,-16.532,83.784,-20.921,83.784,-25.921C83.784,-25.921,83.784,-87.764,83.784,-87.764C83.784,-87.764,58.679,-87.764,58.679,-87.764C58.679,-87.764,58.679,-23.574,58.679,-23.574C58.679,-18.982,58.679,-15.205,58.577,-12.348C58.475,-9.389,58.169,-6.021,57.761,-2.245C56.23,9.185,51.74,17.96,46.127,23.063C43.78,25.206,40.923,27.35,37.555,29.493C34.187,31.636,30.207,33.575,25.717,35.31C25.717,35.31,30.921,41.841,30.921,41.841C37.656,40.106,43.677,38.065,48.984,35.82C54.189,33.473,58.679,31.125,62.353,28.574C72.252,21.635,78.375,12.96,81.437,0C81.437,0,93.887,0,93.887,0C93.887,0,93.887,-12.552,93.887,-12.552Z" /></g><g id="i11"><path fill="#ffffff" d="M-25.513,-89.907C-39.596,-89.907,-61.332,-86.437,-78.579,-81.437C-78.579,-81.437,-76.538,-70.925,-76.538,-70.925C-66.027,-73.476,-48.27,-75.416,-38.167,-75.416C-13.573,-75.416,-10.613,-62.354,-10.613,-35.208C-10.613,-30.514,-11.022,-23.063,-11.736,-12.552C-11.736,-12.552,-98.989,-12.552,-98.989,-12.552C-98.989,-12.552,-98.989,0,-98.989,0C-98.989,0,12.654,0,12.654,0C14.593,-16.838,15.512,-33.575,15.512,-51.536C15.512,-77.763,0.816,-89.907,-25.513,-89.907Z" /></g><g id="i12"><path fill="#ffffff" fill-rule="evenodd" d="M-121.645,10.205C-130.013,10.205,-136.136,16.124,-136.136,23.574C-136.136,30.82,-130.319,36.636,-121.645,36.636C-113.277,36.636,-107.357,31.126,-107.357,23.574C-107.357,16.226,-112.971,10.205,-121.645,10.205ZM-109.194,-12.552C-109.194,-12.552,-109.194,-87.764,-109.194,-87.764C-109.194,-87.764,-134.299,-87.764,-134.299,-87.764C-134.299,-87.764,-134.299,-12.552,-134.299,-12.552C-134.299,-12.552,-164.914,-12.552,-164.914,-12.552C-164.914,-12.552,-164.914,0,-164.914,0C-164.914,0,-88.784,0,-88.784,0C-88.784,0,-88.784,-12.552,-88.784,-12.552C-88.784,-12.552,-109.194,-12.552,-109.194,-12.552Z" /></g><g id="i13"><path fill="#ffffff" d="M-200.326,0C-200.326,0,-154.709,0,-154.709,0C-154.709,0,-154.709,-12.552,-154.709,-12.552C-154.709,-12.552,-175.119,-12.552,-175.119,-12.552C-175.119,-12.552,-175.119,-129.604,-175.119,-129.604C-175.119,-129.604,-200.326,-129.604,-200.326,-129.604C-200.326,-129.604,-200.326,0,-200.326,0Z" /></g></g></g><g transform="matrix(1.333,0,0,1.355,1213.335,551.925)" id="i1"><g transform="matrix(1,0,0,1,35.693,96.527)" visibility="hidden" id="i14"><animate repeatCount="indefinite" begin="0s" calcMode="discrete" dur="8.001s" values="hidden; visible; hidden; hidden" keyTimes="0; 0.250007; 0.37501; 1" attributeName="visibility" /><g id="i4"><path fill="#ffffff" fill-rule="evenodd" d="M215.7,-23.572C184.438,-23.572,172.234,-34.606,172.234,-58.679C172.234,-82.585,184.271,-93.451,215.7,-93.451C247.129,-93.451,259.165,-82.418,259.165,-58.679C259.165,-34.773,246.962,-23.572,215.7,-23.572ZM215.7,1.672C267.023,1.672,289.257,-19.894,289.257,-58.679C289.257,-97.296,267.023,-118.694,215.7,-118.694C164.21,-118.694,142.143,-97.464,142.143,-58.679C142.143,-19.727,164.21,1.672,215.7,1.672Z" /></g><g id="i5"><path fill="#ffffff" d="M55.421,-25.243C55.421,-25.243,55.421,-117.023,55.421,-117.023C55.421,-117.023,25.33,-117.023,25.33,-117.023C25.33,-117.023,25.33,0,25.33,0C25.33,0,145.696,0,145.696,0C145.696,0,145.696,-25.243,145.696,-25.243C145.696,-25.243,55.421,-25.243,55.421,-25.243Z" /></g><g id="i15"><path fill="#ffffff" fill-rule="evenodd" d="M-77.262,-47.311C-77.262,-47.311,-53.356,-94.788,-53.356,-94.788C-53.356,-94.788,-29.617,-47.311,-29.617,-47.311C-29.617,-47.311,-77.262,-47.311,-77.262,-47.311ZM-5.878,0C-5.878,0,27.39,0,27.39,0C27.39,0,-33.128,-117.023,-33.128,-117.023C-33.128,-117.023,-73.751,-117.023,-73.751,-117.023C-73.751,-117.023,-134.102,0,-134.102,0C-134.102,0,-101.001,0,-101.001,0C-101.001,0,-88.463,-24.909,-88.463,-24.909C-88.463,-24.909,-18.416,-24.909,-18.416,-24.909C-18.416,-24.909,-5.878,0,-5.878,0Z" /></g><g id="i7"><path fill="#ffffff" d="M-162.153,-117.023C-162.153,-117.023,-162.153,-71.217,-162.153,-71.217C-162.153,-71.217,-257.443,-71.217,-257.443,-71.217C-257.443,-71.217,-257.443,-117.023,-257.443,-117.023C-257.443,-117.023,-287.535,-117.023,-287.535,-117.023C-287.535,-117.023,-287.535,0,-287.535,0C-287.535,0,-257.443,0,-257.443,0C-257.443,0,-257.443,-45.806,-257.443,-45.806C-257.443,-45.806,-162.153,-45.806,-162.153,-45.806C-162.153,-45.806,-162.153,0,-162.153,0C-162.153,0,-132.062,0,-132.062,0C-132.062,0,-132.062,-117.023,-132.062,-117.023C-132.062,-117.023,-162.153,-117.023,-162.153,-117.023Z" /></g></g></g><g transform="matrix(1.333,0,0,1.355,1213.335,551.925)" id="i1"><g transform="matrix(1,0,0,1,35.693,96.527)" visibility="hidden" id="i16"><animate repeatCount="indefinite" begin="0s" calcMode="discrete" dur="8.001s" values="hidden; visible; hidden; hidden" keyTimes="0; 0.37501; 0.500013; 1" attributeName="visibility" /><g id="i17"><path fill="#ffffff" d="M168.846,-74.613C168.846,-74.613,167.55,-74.822,167.55,-74.822C167.55,-74.822,149.54,-61.237,149.54,-61.237C152.603,-54.686,155.078,-48.662,156.959,-43.159C158.84,-37.653,159.781,-32.813,159.781,-28.633C159.781,-27.239,159.506,-25.426,158.961,-23.199C155.264,-21.527,149.04,-20.691,140.282,-20.691C135.491,-20.691,130.567,-21.387,125.505,-22.781C127.873,-28.352,131.008,-37.202,134.91,-49.324C134.91,-49.324,134.074,-50.16,134.074,-50.16C134.074,-50.16,113.174,-46.816,113.174,-46.816C111.639,-41.519,110.143,-36.503,108.68,-31.768C107.217,-27.03,105.996,-24.035,105.023,-22.781C103.07,-21.387,100.007,-20.691,95.827,-20.691C92.202,-20.691,88.303,-21.073,84.123,-21.84C79.943,-22.604,76.181,-23.617,72.837,-24.871C74.369,-27.657,75.936,-31.246,77.539,-35.635C79.139,-40.024,80.707,-44.517,82.242,-49.115C82.242,-49.115,81.406,-50.16,81.406,-50.16C81.406,-50.16,59.043,-46.816,59.043,-46.816C57.508,-40.683,56.221,-35.771,55.176,-32.081C54.131,-28.388,53.051,-25.707,51.937,-24.035C49.847,-22.918,46.816,-22.082,42.845,-21.527C38.874,-20.969,33.545,-20.691,26.857,-20.691C26.857,-20.691,22.259,0,22.259,0C31.873,0,39.743,-0.732,45.876,-2.195C52.006,-3.658,57.09,-5.989,61.133,-9.196C64.895,-6.548,69.597,-4.354,75.24,-2.613C80.883,-0.869,86.977,0,93.528,0C101.607,0,108.086,-1.809,112.965,-5.434C120.907,-1.809,129.336,0,138.254,0C151.072,0,161.172,-2.822,168.559,-8.465C175.943,-14.108,179.636,-22.781,179.636,-34.485C179.636,-44.236,176.037,-57.612,168.846,-74.613Z" /></g><g id="i13"><path fill="#ffffff" d="M27.066,-20.691C21.351,-20.691,16.857,-21.246,13.585,-22.363C10.31,-23.477,7.942,-25.394,6.479,-28.111C5.016,-30.828,4.285,-34.763,4.285,-39.919C4.285,-39.919,4.285,-142.538,4.285,-142.538C4.285,-142.538,2.681,-143.583,2.681,-143.583C2.681,-143.583,-15.57,-138.567,-15.57,-138.567C-15.57,-138.567,-15.57,-48.488,-15.57,-48.488C-17.17,-46.258,-19.332,-43.818,-22.049,-41.173C-26.928,-50.647,-34.276,-61.829,-44.099,-74.718C-53.922,-87.604,-64.825,-99.621,-76.807,-110.77C-76.807,-110.77,-78.27,-110.143,-78.27,-110.143C-78.27,-110.143,-85.376,-88.825,-85.376,-88.825C-72.976,-77.399,-62.876,-67.262,-55.071,-58.415C-47.269,-49.565,-40.65,-40.474,-35.216,-31.141C-47.756,-24.172,-64.339,-20.482,-84.958,-20.064C-84.958,-20.064,-85.794,-18.81,-85.794,-18.81C-85.794,-18.81,-76.389,0.627,-76.389,0.627C-49.777,0.627,-29.295,-7.661,-14.943,-24.244C-12.853,-15.744,-8.641,-9.578,-2.299,-5.747C4.04,-1.913,12.227,0,22.259,0C26.994,0,30.374,-1.287,32.395,-3.867C34.413,-6.444,35.426,-9.751,35.426,-13.794C35.426,-16.021,34.799,-17.73,33.545,-18.915C32.291,-20.097,30.129,-20.691,27.066,-20.691Z" /></g><g id="i9"><path fill="#ffffff" d="M-136.999,-70.224C-142.155,-70.224,-147.103,-68.689,-151.838,-65.626C-156.576,-62.56,-160.584,-57.998,-163.856,-51.937C-167.131,-45.876,-169.048,-38.734,-169.603,-30.514C-169.603,-30.514,-166.818,-29.469,-166.818,-29.469C-166.818,-29.469,-153.719,-30.723,-153.719,-30.723C-152.485,-37.271,-150.568,-42.183,-147.972,-45.458C-145.379,-48.73,-142.472,-50.369,-139.259,-50.369C-135.922,-50.369,-132.741,-48.871,-129.71,-45.876C-126.683,-42.878,-124.211,-38.943,-122.294,-34.067C-120.38,-29.188,-119.358,-24.035,-119.234,-18.601C-127.264,-19.992,-134.531,-20.691,-141.036,-20.691C-150.451,-20.691,-158.271,-18.774,-164.499,-14.943C-170.73,-11.109,-175.331,-6.235,-178.306,-0.314C-181.284,5.607,-182.77,11.773,-182.77,18.183C-182.77,21.945,-182.291,27.239,-181.324,34.067C-180.357,40.892,-179.253,47.93,-178.012,55.176C-178.012,55.176,-174.91,74.404,-174.91,74.404C-174.91,74.404,-173.258,75.658,-173.258,75.658C-173.258,75.658,-155.391,67.298,-155.391,67.298C-155.949,62.978,-156.785,58.171,-157.899,52.877C-159.571,43.263,-160.825,35.53,-161.661,29.678C-162.497,23.826,-162.915,18.392,-162.915,13.376C-162.915,8.778,-162.566,5.362,-161.867,3.135C-159.77,2.159,-156.975,1.323,-153.481,0.627C-149.987,-0.069,-146.63,-0.418,-143.413,-0.418C-139.501,-0.418,-134.328,-0.137,-127.895,0.418C-121.743,0.973,-117.268,1.254,-114.473,1.254C-109.722,1.254,-106.263,-0.555,-104.095,-4.18C-101.927,-7.802,-100.842,-13.654,-100.842,-21.736C-100.842,-29.397,-102.41,-36.993,-105.545,-44.517C-108.68,-52.041,-113,-58.207,-118.503,-63.014C-124.009,-67.821,-130.174,-70.224,-136.999,-70.224Z" /></g></g></g><g transform="matrix(1.333,0,0,1.355,1213.335,551.925)" id="i1"><g transform="matrix(1,0,0,1,35.693,96.527)" visibility="hidden" id="i18"><animate repeatCount="indefinite" begin="0s" calcMode="discrete" dur="8.001s" values="hidden; visible; hidden; hidden" keyTimes="0; 0.500013; 0.625017; 1" attributeName="visibility" /><g id="i15"><path fill="#ffffff" fill-rule="evenodd" d="M170.238,-45.863C171.598,-52.859,173.671,-56.357,176.457,-56.357C176.457,-56.357,226.207,-56.357,226.207,-56.357C228.02,-56.357,228.928,-55.45,228.928,-53.637C228.928,-53.637,228.928,-52.471,228.928,-52.471C228.928,-51.628,227.502,-46.965,224.652,-38.479C224.652,-38.479,167.518,-38.479,167.518,-38.479C169.136,-43.401,170.044,-45.863,170.238,-45.863ZM133.314,-70.738C137.201,-68.341,139.145,-65.88,139.145,-63.354C139.145,-63.354,139.145,-59.467,139.145,-59.467C139.145,-58.624,132.666,-38.802,119.711,0C119.711,0,154.303,0,154.303,0C154.626,0,155.143,-0.907,155.857,-2.721C160.261,-16.713,162.723,-23.709,163.242,-23.709C163.242,-23.709,219.988,-23.709,219.988,-23.709C219.211,-20.794,216.49,-13.021,211.826,-0.389C211.826,-0.389,212.604,0,212.604,0C212.604,0,247.195,0,247.195,0C258.596,-31.482,264.297,-49.75,264.297,-54.803C264.297,-55.904,264.166,-57.329,263.908,-59.078C260.604,-67.369,253.478,-71.516,242.531,-71.516C242.531,-71.516,133.314,-71.516,133.314,-71.516C133.314,-71.516,133.314,-70.738,133.314,-70.738Z" /></g><g id="i5"><path fill="#ffffff" d="M21.377,-71.127C25.522,-67.823,27.596,-64.843,27.596,-62.188C27.596,-62.188,27.596,-59.855,27.596,-59.855C21.895,-41.457,15.287,-21.635,7.773,-0.389C7.773,-0.389,8.551,0,8.551,0C8.551,0,120.488,0,120.488,0C120.488,0,120.488,-0.777,120.488,-0.777C114.204,-10.363,105.265,-15.158,93.67,-15.158C93.67,-15.158,53.248,-15.158,53.248,-15.158C50.397,-15.805,48.973,-16.713,48.973,-17.879C48.973,-17.879,48.973,-18.656,48.973,-18.656C58.301,-45.474,62.965,-60.374,62.965,-63.354C62.122,-68.795,59.53,-71.516,55.191,-71.516C55.191,-71.516,21.377,-71.516,21.377,-71.516C21.377,-71.516,21.377,-71.127,21.377,-71.127Z" /></g><g id="i4"><path fill="#ffffff" fill-rule="evenodd" d="M-78.609,-44.697C-77.314,-51.693,-75.241,-55.191,-72.39,-55.191C-72.39,-55.191,-17.587,-55.191,-17.587,-55.191C-21.993,-40.745,-24.454,-33.101,-24.972,-32.26C-27.304,-21.895,-29.896,-16.713,-32.746,-16.713C-32.746,-16.713,-87.937,-16.713,-87.937,-16.713C-81.978,-35.369,-78.869,-44.697,-78.609,-44.697ZM-106.982,-67.629C-108.019,-65.166,-113.719,-47.029,-124.083,-13.215C-124.083,-13.215,-123.695,-10.494,-123.695,-10.494C-120.003,-3.498,-109.38,0,-91.824,0C-91.824,0,-40.908,0,-40.908,0C-17.393,0,-2.494,-4.145,3.79,-12.438C14.154,-42.56,19.336,-58.884,19.336,-61.41C19.336,-61.41,19.336,-61.799,19.336,-61.799C19.336,-68.276,15.579,-71.516,8.065,-71.516C8.065,-71.516,-96.099,-71.516,-96.099,-71.516C-100.894,-71.516,-104.521,-70.219,-106.982,-67.629Z" /></g><g id="i7"><path fill="#ffffff" d="M-255.746,0C-255.746,0,-220.766,0,-220.766,0C-220.248,0,-217.01,-9.457,-211.049,-28.373C-211.049,-28.373,-166.74,-28.373,-166.74,-28.373C-168.554,-21.895,-171.535,-12.695,-175.68,-0.777C-175.68,-0.258,-175.421,0,-174.902,0C-174.902,0,-140.311,0,-140.311,0C-138.756,-4.145,-131.113,-27.724,-117.379,-70.738C-117.379,-71.19,-117.638,-71.451,-118.156,-71.516C-118.156,-71.516,-151.582,-71.516,-151.582,-71.516C-152.359,-70.933,-155.599,-61.474,-161.299,-43.143C-161.299,-43.143,-205.996,-43.143,-205.996,-43.143C-205.996,-43.143,-197.057,-70.738,-197.057,-70.738C-197.057,-71.19,-197.316,-71.451,-197.834,-71.516C-197.834,-71.516,-231.648,-71.516,-231.648,-71.516C-232.425,-71.516,-240.459,-47.676,-255.746,0Z" /></g></g></g><g transform="matrix(1.333,0,0,1.355,1213.335,551.925)" id="i1"><g transform="matrix(1,0,0,1,35.693,96.527)" visibility="hidden" id="i19"><animate repeatCount="indefinite" begin="0s" calcMode="discrete" dur="8.001s" values="hidden; visible; hidden; hidden" keyTimes="0; 0.625017; 0.75002; 1" attributeName="visibility" /><g id="i20"><path fill="#ffffff" d="M171.995,-112.754C171.995,-112.754,172.781,-113.877,172.781,-113.877C150.994,-155.879,146.614,-169.692,125.388,-169.692C116.853,-169.692,109.778,-168.569,103.601,-166.772C103.601,-166.772,109.329,-151.387,109.329,-151.387C109.329,-151.387,110.227,-150.713,110.227,-150.713C116.741,-152.51,123.479,-153.633,130.217,-153.633C143.244,-153.633,147.063,-148.13,153.464,-135.327C157.282,-127.803,160.652,-120.278,164.021,-112.754C164.021,-112.754,171.995,-112.754,171.995,-112.754Z" /></g><g id="i21"><path fill="#ffffff" fill-rule="evenodd" d="M59.69,-102.871C59.69,-102.871,160.989,-102.871,160.989,-102.871C160.989,-102.871,160.989,-81.421,160.989,-81.421C153.015,-81.983,144.929,-82.095,136.169,-82.095C110.451,-82.095,100.119,-74.009,98.098,-60.532C92.82,-58.96,88.216,-58.286,81.702,-58.286C74.964,-58.286,67.551,-59.409,60.925,-61.88C61.936,-66.597,62.273,-71.314,62.273,-76.255C62.273,-84.566,61.487,-93.325,59.69,-102.871ZM19.373,-102.871C19.373,-102.871,47.561,-102.871,47.561,-102.871C48.572,-97.368,49.134,-90.293,49.246,-82.319C49.246,-75.805,48.572,-70.415,47.224,-65.811C43.63,-66.373,39.924,-66.934,37.004,-66.934C29.48,-66.934,27.009,-60.083,27.009,-57.5C27.009,-53.12,29.929,-46.719,34.421,-39.082C42.732,-25.269,57.669,-10.107,77.659,5.84C77.659,5.84,78.669,5.84,78.669,5.84C78.669,5.84,86.306,-8.76,86.306,-8.76C70.92,-17.183,56.77,-26.504,46.213,-38.184C50.705,-41.216,54.973,-45.596,58.567,-52.222C70.359,-46.494,81.365,-43.911,90.686,-43.911C94.28,-43.911,96.751,-44.135,98.997,-44.697C102.366,-30.21,112.81,-14.712,130.217,1.123C130.217,1.123,131.228,1.123,131.228,1.123C131.228,1.123,140.886,-12.69,140.886,-12.69C120.559,-25.044,109.216,-38.184,109.216,-49.639C109.216,-59.634,118.538,-68.169,143.582,-68.169C149.646,-68.169,155.486,-68.169,160.989,-67.832C160.989,-67.832,160.54,-2.134,160.54,-2.134C160.54,-2.134,173.118,1.235,173.118,1.235C173.118,1.235,174.241,0,174.241,0C174.241,0,173.792,-102.871,173.792,-102.871C173.792,-102.871,194.119,-102.871,194.119,-102.871C194.119,-102.871,195.017,-104.106,195.017,-104.106C195.017,-104.106,189.626,-115,189.626,-115C189.626,-115,14.88,-115,14.88,-115C14.88,-115,13.982,-113.765,13.982,-113.765C13.982,-113.765,19.373,-102.871,19.373,-102.871Z" /></g><g id="i22"><path fill="#ffffff" fill-rule="evenodd" d="M-9.265,-59.521C-9.265,-59.521,-52.166,-59.521,-52.166,-59.521C-52.166,-59.521,-52.166,-102.871,-52.166,-102.871C-52.166,-102.871,-9.265,-102.871,-9.265,-102.871C-9.265,-102.871,-9.265,-59.521,-9.265,-59.521ZM-89.675,-102.871C-89.675,-102.871,-64.519,-102.871,-64.519,-102.871C-64.519,-102.871,-64.519,-60.308,-64.519,-60.308C-70.583,-59.297,-74.627,-57.95,-76.873,-56.265C-79.681,-53.907,-81.028,-51.547,-81.028,-49.189C-81.028,-41.215,-67.215,-27.515,-61.038,-27.515C-58.006,-27.515,-56.208,-28.525,-54.187,-31.108C-52.39,-33.354,-51.716,-36.724,-51.716,-41.89C-51.716,-41.89,-51.716,-46.943,-51.716,-46.943C-51.716,-46.943,-9.265,-46.943,-9.265,-46.943C-9.265,-46.943,-9.714,-2.134,-9.714,-2.134C-9.714,-2.134,2.976,1.235,2.976,1.235C2.976,1.235,4.099,0,4.099,0C4.099,0,3.538,-102.871,3.538,-102.871C3.538,-102.871,23.865,-102.871,23.865,-102.871C23.865,-102.871,24.763,-104.106,24.763,-104.106C24.763,-104.106,19.373,-115,19.373,-115C19.373,-115,-94.167,-115,-94.167,-115C-94.167,-115,-95.066,-113.765,-95.066,-113.765C-95.066,-113.765,-89.675,-102.871,-89.675,-102.871Z" /></g><g id="i23"><path fill="#ffffff" d="M-189.626,-102.871C-189.626,-102.871,-118.313,-102.871,-118.313,-102.871C-118.313,-102.871,-118.313,-71.763,-118.313,-71.763C-130.442,-72.998,-141.897,-73.896,-152.229,-73.896C-160.315,-73.896,-167.84,-72.998,-173.904,-70.303C-179.295,-67.832,-181.877,-64.239,-181.877,-60.308C-181.877,-50.425,-167.278,-35.601,-162.224,-35.601C-158.967,-35.601,-156.385,-36.948,-154.7,-39.868C-154.026,-41.216,-153.577,-44.585,-153.577,-49.526C-153.577,-49.526,-153.577,-58.062,-153.577,-58.062C-148.86,-59.522,-142.458,-60.195,-135.046,-60.195C-129.094,-60.195,-123.704,-59.859,-118.313,-59.297C-118.313,-59.297,-118.762,-2.134,-118.762,-2.134C-118.762,-2.134,-106.072,1.235,-106.072,1.235C-106.072,1.235,-104.949,0,-104.949,0C-104.949,0,-105.51,-102.871,-105.51,-102.871C-105.51,-102.871,-85.183,-102.871,-85.183,-102.871C-85.183,-102.871,-84.285,-104.106,-84.285,-104.106C-84.285,-104.106,-89.675,-115,-89.675,-115C-89.675,-115,-194.119,-115,-194.119,-115C-194.119,-115,-195.017,-113.765,-195.017,-113.765C-195.017,-113.765,-189.626,-102.871,-189.626,-102.871Z" /></g></g></g><g transform="matrix(1.333,0,0,1.355,1213.335,551.925)" id="i1"><g transform="matrix(1,0,0,1,35.693,96.527)" visibility="hidden" id="i24"><animate repeatCount="indefinite" begin="0s" calcMode="discrete" dur="8.001s" values="hidden; visible; hidden; hidden" keyTimes="0; 0.75002; 0.875023; 1" attributeName="visibility" /><g id="i25"><path fill="#ffffff" d="M257.795,-60.48C254.832,-62.88,251.593,-64.639,248.075,-65.76C246.792,-62.239,245.394,-58.56,243.875,-54.72C242.352,-50.88,240.635,-47.04,238.715,-43.2C236.795,-39.36,234.714,-35.678,232.475,-32.16C230.233,-28.639,227.754,-25.519,225.035,-22.8C224.233,-21.997,223.272,-21.199,222.155,-20.4C221.037,-19.598,219.838,-19.2,218.555,-19.2C216.478,-19.2,215.435,-20.239,215.435,-22.32C215.435,-23.28,215.638,-24.199,216.035,-25.08C216.436,-25.958,216.958,-26.797,217.595,-27.6C222.234,-34.32,226.595,-41.198,230.675,-48.24C234.755,-55.279,237.275,-62.88,238.235,-71.04C235.992,-73.92,234.395,-77.077,233.435,-80.52C232.475,-83.959,231.995,-87.517,231.995,-91.2C231.995,-93.12,232.273,-95.599,232.835,-98.64C233.394,-101.678,234.275,-104.64,235.475,-107.52C236.675,-110.4,238.153,-112.879,239.915,-114.96C241.674,-117.037,243.755,-118.08,246.155,-118.08C247.914,-118.08,249.275,-117.319,250.235,-115.8C251.195,-114.278,251.994,-112.519,252.635,-110.52C253.272,-108.518,253.674,-106.477,253.835,-104.4C253.993,-102.319,254.075,-100.639,254.075,-99.36C254.075,-95.52,253.835,-91.68,253.355,-87.84C255.275,-84.96,257.833,-82.597,261.035,-80.76C264.234,-78.919,267.395,-76.92,270.515,-74.76C273.635,-72.6,276.312,-69.96,278.555,-66.84C280.794,-63.72,281.915,-59.52,281.915,-54.24C281.915,-51.517,281.514,-48.398,280.715,-44.88C279.432,-39.278,278.315,-33.679,277.355,-28.08C276.395,-22.478,275.915,-16.8,275.915,-11.04C275.915,-9.439,276.114,-7.56,276.515,-5.4C276.912,-3.24,278.233,-2.16,280.475,-2.16C283.194,-2.16,286.355,-3.517,289.955,-6.24C293.555,-8.959,297.114,-12.158,300.635,-15.84C304.152,-19.519,307.434,-23.239,310.475,-27C313.513,-30.758,315.755,-33.758,317.195,-36C317.994,-37.118,318.912,-38.359,319.955,-39.72C320.994,-41.077,322.235,-41.76,323.675,-41.76C325.115,-41.76,326.034,-41.239,326.435,-40.2C326.832,-39.158,327.035,-37.999,327.035,-36.72C327.035,-35.76,326.832,-34.879,326.435,-34.08C326.034,-33.278,325.595,-32.479,325.115,-31.68C323.195,-28.639,320.353,-24.799,316.595,-20.16C312.834,-15.517,308.754,-11.044,304.355,-6.739C299.953,-2.434,295.392,1.245,290.675,4.301C285.954,7.35,281.675,8.88,277.835,8.88C273.834,8.88,270.714,7.665,268.475,5.239C266.233,2.809,264.553,-0.108,263.435,-3.521C262.314,-6.933,261.635,-10.56,261.395,-14.4C261.155,-18.24,261.035,-21.6,261.035,-24.48C261.035,-28.958,261.234,-33.36,261.635,-37.68C262.032,-42,262.235,-46.399,262.235,-50.88C262.235,-54.877,260.754,-58.08,257.795,-60.48Z" /></g><g id="i26"><path fill="#ffffff" d="M108.035,-53.4C109.074,-60.997,110.712,-68.239,112.955,-75.12C114.234,-78.799,116.352,-81.679,119.315,-83.76C122.274,-85.837,125.593,-86.88,129.275,-86.88C132.954,-86.88,134.795,-85.118,134.795,-81.6C134.795,-80.317,134.593,-78.998,134.195,-77.64C133.794,-76.279,133.434,-74.959,133.115,-73.68C131.832,-69.679,130.512,-65.28,129.155,-60.48C127.794,-55.68,126.594,-50.76,125.555,-45.72C124.513,-40.68,123.635,-35.678,122.915,-30.72C122.195,-25.759,121.835,-21.199,121.835,-17.04C121.835,-15.439,122.034,-13.44,122.435,-11.04C122.833,-8.64,124.152,-7.44,126.395,-7.44C129.114,-7.44,132.114,-8.678,135.395,-11.16C138.673,-13.639,142.033,-16.838,145.475,-20.76C148.914,-24.679,152.315,-29.04,155.675,-33.84C159.035,-38.64,162.155,-43.399,165.035,-48.12C167.915,-52.837,170.473,-57.199,172.715,-61.2C174.954,-65.197,176.555,-68.4,177.515,-70.8C178.152,-72.24,178.794,-73.879,179.435,-75.72C180.072,-77.558,180.875,-79.237,181.835,-80.76C182.795,-82.279,183.954,-83.558,185.315,-84.6C186.672,-85.639,188.394,-86.16,190.475,-86.16C191.915,-86.16,193.153,-85.92,194.195,-85.44C195.234,-84.96,195.755,-83.839,195.755,-82.08C195.755,-80.479,195.474,-78.919,194.915,-77.4C194.353,-75.877,193.835,-74.4,193.355,-72.96C192.072,-69.439,190.835,-65.437,189.635,-60.96C188.435,-56.479,187.393,-51.919,186.515,-47.28C185.634,-42.638,184.955,-37.999,184.475,-33.36C183.995,-28.717,183.755,-24.559,183.755,-20.88C183.755,-19.759,183.834,-18.24,183.995,-16.32C184.153,-14.4,184.475,-12.517,184.955,-10.68C185.435,-8.839,186.155,-7.237,187.115,-5.88C188.075,-4.519,189.354,-3.84,190.955,-3.84C193.355,-3.84,196.393,-5.479,200.075,-8.76C203.754,-12.038,207.433,-15.878,211.115,-20.28C214.794,-24.679,218.195,-29.04,221.315,-33.36C224.435,-37.68,226.632,-40.879,227.915,-42.96C228.714,-44.077,229.794,-45.559,231.155,-47.4C232.512,-49.237,233.915,-50.16,235.355,-50.16C236.795,-50.16,237.714,-49.718,238.115,-48.84C238.512,-47.959,238.715,-46.879,238.715,-45.6C238.715,-44.797,238.512,-43.958,238.115,-43.08C237.714,-42.199,237.354,-41.359,237.035,-40.56C235.115,-36.72,232.235,-32.119,228.395,-26.76C224.555,-21.398,220.235,-16.238,215.435,-11.28C210.635,-6.319,205.674,-2.078,200.555,1.44C195.433,4.958,190.554,6.72,185.915,6.72C182.233,6.72,179.352,5.437,177.275,2.88C175.194,0.319,173.593,-2.719,172.475,-6.24C171.354,-9.758,170.675,-13.477,170.435,-17.4C170.195,-21.319,170.075,-24.559,170.075,-27.12C170.075,-28.718,170.075,-30.24,170.075,-31.68C170.075,-33.12,170.233,-34.639,170.555,-36.24C168.155,-32.88,165.234,-28.958,161.795,-24.48C158.352,-19.999,154.554,-15.758,150.395,-11.76C146.233,-7.759,141.875,-4.358,137.315,-1.56C132.755,1.238,128.232,2.64,123.755,2.64C119.435,2.64,116.113,1.44,113.795,-0.96C111.474,-3.36,109.794,-6.277,108.755,-9.72C107.712,-13.159,107.075,-16.838,106.835,-20.76C106.595,-24.679,106.475,-28.159,106.475,-31.2C106.475,-38.4,106.992,-45.799,108.035,-53.4Z" /></g><g id="i4"><path fill="#ffffff" fill-rule="evenodd" d="M65.036,-69.6C61.594,-65.918,58.714,-61.519,56.396,-56.4C54.075,-51.278,52.316,-45.997,51.116,-40.56C49.916,-35.119,49.316,-30.559,49.316,-26.88C49.316,-24.96,49.473,-22.838,49.796,-20.52C50.115,-18.199,50.715,-16.08,51.596,-14.16C52.474,-12.24,53.715,-10.597,55.316,-9.24C56.914,-7.879,58.916,-7.2,61.316,-7.2C63.393,-7.2,65.355,-7.639,67.196,-8.52C69.034,-9.398,70.755,-10.478,72.356,-11.76C75.394,-14.16,77.996,-16.999,80.156,-20.28C82.316,-23.557,84.075,-27.038,85.436,-30.72C86.793,-34.399,87.795,-38.197,88.436,-42.12C89.073,-46.039,89.396,-49.838,89.396,-53.52C89.396,-55.44,89.235,-57.679,88.916,-60.24C88.594,-62.797,87.956,-65.16,86.996,-67.32C86.036,-69.48,84.754,-71.317,83.156,-72.84C81.555,-74.359,79.473,-75.12,76.916,-75.12C72.435,-75.12,68.475,-73.279,65.036,-69.6ZM35.036,-47.52C37.035,-54.877,39.956,-61.759,43.796,-68.16C47.636,-74.558,52.316,-79.958,57.836,-84.36C63.356,-88.759,69.716,-90.96,76.916,-90.96C81.394,-90.96,85.076,-89.917,87.956,-87.84C90.836,-85.759,93.116,-83.119,94.796,-79.92C96.476,-76.718,97.676,-73.2,98.396,-69.36C99.116,-65.52,99.476,-61.759,99.476,-58.08C99.476,-52.8,98.996,-47.479,98.036,-42.12C97.076,-36.757,95.553,-31.598,93.476,-26.64C91.395,-21.679,88.755,-17.04,85.556,-12.72C82.354,-8.4,78.435,-4.718,73.796,-1.68C71.073,0.079,68.115,1.56,64.916,2.76C61.714,3.96,58.436,4.56,55.076,4.56C50.756,4.56,47.115,3.559,44.156,1.56C41.193,-0.439,38.835,-2.959,37.076,-6C35.313,-9.038,34.035,-12.48,33.236,-16.32C32.434,-20.16,32.036,-23.839,32.036,-27.36C32.036,-33.439,33.033,-40.159,35.036,-47.52Z" /></g><g id="i27"><path fill="#ffffff" fill-rule="evenodd" d="M4.571,-118.2C6.33,-120.679,8.809,-121.92,12.011,-121.92C15.21,-121.92,17.689,-120.679,19.451,-118.2C21.21,-115.718,22.091,-113.04,22.091,-110.16C22.091,-107.28,21.21,-104.558,19.451,-102C17.689,-99.439,15.21,-98.16,12.011,-98.16C8.809,-98.16,6.33,-99.439,4.571,-102C2.809,-104.558,1.931,-107.28,1.931,-110.16C1.931,-113.04,2.809,-115.718,4.571,-118.2ZM-12.229,9.48C-18.147,15,-23.708,20.959,-28.909,27.36C-34.106,33.758,-38.509,40.399,-42.109,47.28C-45.709,54.158,-47.509,60.878,-47.509,67.44C-47.509,68.88,-47.348,70.44,-47.029,72.12C-46.707,73.8,-46.148,75.319,-45.349,76.68C-44.546,78.037,-43.508,79.159,-42.229,80.04C-40.946,80.918,-39.428,81.36,-37.669,81.36C-33.668,81.36,-29.907,79.68,-26.389,76.32C-22.868,72.96,-19.628,68.64,-16.669,63.36C-13.707,58.08,-11.07,52.2,-8.749,45.72C-6.431,39.24,-4.429,32.797,-2.749,26.4C-1.069,19.999,0.288,14.078,1.331,8.64C2.37,3.199,3.131,-1.117,3.611,-4.32C-1.032,-0.637,-6.312,3.96,-12.229,9.48ZM4.811,-17.28C4.969,-22.08,5.01,-26.917,4.931,-31.8C4.849,-36.679,4.729,-41.52,4.571,-46.32C3.93,-44.719,2.809,-42.439,1.211,-39.48C-0.39,-36.517,-2.232,-33.559,-4.309,-30.6C-6.39,-27.637,-8.55,-25.039,-10.789,-22.8C-13.031,-20.557,-15.026,-19.44,-16.789,-19.44C-18.866,-19.44,-19.909,-20.479,-19.909,-22.56C-19.909,-23.678,-19.707,-24.637,-19.309,-25.44C-18.908,-26.239,-18.386,-27.038,-17.749,-27.84C-13.429,-33.919,-9.589,-39.637,-6.229,-45C-2.869,-50.359,-0.311,-56.719,1.451,-64.08C1.451,-64.08,2.891,-71.28,2.891,-71.28C3.21,-72.559,3.81,-73.999,4.691,-75.6C5.569,-77.198,6.649,-78.72,7.931,-80.16C9.21,-81.6,10.608,-82.8,12.131,-83.76C13.65,-84.72,15.131,-85.2,16.571,-85.2C18.33,-85.2,19.691,-84.559,20.651,-83.28C21.611,-81.998,22.249,-80.52,22.571,-78.84C22.89,-77.16,23.051,-75.36,23.051,-73.44C23.051,-71.678,23.051,-70.159,23.051,-68.88C23.051,-58.159,22.77,-45.919,22.211,-32.16C21.649,-18.398,20.25,-4.56,18.011,9.36C15.769,23.28,12.409,36.439,7.931,48.84C3.45,61.238,-2.629,71.359,-10.309,79.2C-13.669,82.717,-17.667,85.8,-22.309,88.44C-26.948,91.08,-31.826,92.4,-36.949,92.4C-40.628,92.4,-43.748,91.639,-46.309,90.12C-48.866,88.597,-51.027,86.64,-52.789,84.24C-54.548,81.84,-55.827,79.08,-56.629,75.96C-57.428,72.84,-57.829,69.679,-57.829,66.48C-57.829,58.32,-55.947,50.4,-52.189,42.72C-48.428,35.04,-43.669,27.84,-37.909,21.12C-32.149,14.4,-25.868,8.239,-19.069,2.64C-12.27,-2.959,-5.749,-7.837,0.491,-12C0.491,-12,4.811,-14.88,4.811,-14.88C4.811,-14.88,4.811,-17.28,4.811,-17.28Z" /></g><g id="i28"><path fill="#ffffff" d="M-119.989,6.84C-120.792,5.64,-121.189,4.238,-121.189,2.64C-121.189,-9.199,-119.951,-21.36,-117.469,-33.84C-114.99,-46.32,-112.549,-58.32,-110.149,-69.84C-109.35,-73.519,-108.63,-77.28,-107.989,-81.12C-107.352,-84.96,-106.631,-88.718,-105.829,-92.4C-105.191,-95.28,-103.47,-97.92,-100.669,-100.32C-97.871,-102.72,-94.95,-103.92,-91.909,-103.92C-89.19,-103.92,-87.312,-103.2,-86.269,-101.76C-85.23,-100.32,-84.709,-98.317,-84.709,-95.76C-84.709,-91.597,-85.391,-87.24,-86.749,-82.68C-88.11,-78.12,-89.509,-73.92,-90.949,-70.08C-92.711,-65.599,-94.069,-61.039,-95.029,-56.4C-95.989,-51.757,-96.792,-47.119,-97.429,-42.48C-95.67,-45.038,-93.072,-48.72,-89.629,-53.52C-86.19,-58.32,-82.47,-63.037,-78.469,-67.68C-74.471,-72.319,-70.429,-76.399,-66.349,-79.92C-62.269,-83.438,-58.71,-85.2,-55.669,-85.2C-53.269,-85.2,-51.349,-84.319,-49.909,-82.56C-48.469,-80.798,-47.389,-78.638,-46.669,-76.08C-45.949,-73.519,-45.51,-70.957,-45.349,-68.4C-45.191,-65.839,-45.109,-63.679,-45.109,-61.92C-45.109,-56.317,-45.27,-50.719,-45.589,-45.12C-45.911,-39.517,-46.069,-33.919,-46.069,-28.32C-46.069,-26.88,-46.031,-25.32,-45.949,-23.64C-45.87,-21.96,-45.589,-20.4,-45.109,-18.96C-44.629,-17.52,-43.872,-16.32,-42.829,-15.36C-41.79,-14.4,-40.309,-13.92,-38.389,-13.92C-35.19,-13.92,-31.95,-15.158,-28.669,-17.64C-25.392,-20.119,-22.23,-23.077,-19.189,-26.52C-16.152,-29.959,-13.429,-33.518,-11.029,-37.2C-8.629,-40.879,-6.791,-43.999,-5.509,-46.56C-4.872,-47.678,-4.069,-48.96,-3.109,-50.4C-2.149,-51.84,-0.949,-52.56,0.491,-52.56C1.77,-52.56,2.771,-52.039,3.491,-51C4.211,-49.958,4.571,-48.877,4.571,-47.76C4.571,-47.119,4.368,-46.32,3.971,-45.36C3.57,-44.4,3.21,-43.597,2.891,-42.96C1.129,-39.278,-1.392,-35.077,-4.669,-30.36C-7.95,-25.639,-11.712,-21.199,-15.949,-17.04C-20.19,-12.877,-24.672,-9.36,-29.389,-6.48C-34.11,-3.6,-38.712,-2.16,-43.189,-2.16C-47.352,-2.16,-50.591,-3.24,-52.909,-5.4C-55.23,-7.56,-56.989,-10.238,-58.189,-13.44C-59.389,-16.639,-60.109,-20.077,-60.349,-23.76C-60.589,-27.439,-60.709,-30.799,-60.709,-33.84C-60.709,-38.479,-60.551,-43.039,-60.229,-47.52C-59.91,-51.998,-59.749,-56.557,-59.749,-61.2C-59.749,-61.837,-59.869,-62.797,-60.109,-64.08C-60.349,-65.359,-60.949,-66,-61.909,-66C-62.712,-66,-63.672,-65.52,-64.789,-64.56C-65.91,-63.6,-66.792,-62.797,-67.429,-62.16C-71.43,-58.32,-75.191,-53.839,-78.709,-48.72C-82.23,-43.598,-85.429,-38.719,-88.309,-34.08C-91.83,-28.478,-95.029,-22.759,-97.909,-16.92C-100.789,-11.078,-103.59,-5.119,-106.309,0.96C-107.269,2.88,-108.589,4.639,-110.269,6.24C-111.949,7.837,-113.91,8.64,-116.149,8.64C-117.911,8.64,-119.19,8.04,-119.989,6.84Z" /></g><g id="i4"><path fill="#ffffff" fill-rule="evenodd" d="M-161.074,-69.6C-164.517,-65.918,-167.396,-61.519,-169.714,-56.4C-172.035,-51.278,-173.794,-45.997,-174.994,-40.56C-176.194,-35.119,-176.794,-30.559,-176.794,-26.88C-176.794,-24.96,-176.636,-22.838,-176.314,-20.52C-175.995,-18.199,-175.395,-16.08,-174.514,-14.16C-173.636,-12.24,-172.395,-10.597,-170.794,-9.24C-169.196,-7.879,-167.194,-7.2,-164.794,-7.2C-162.717,-7.2,-160.755,-7.639,-158.914,-8.52C-157.077,-9.398,-155.355,-10.478,-153.754,-11.76C-150.717,-14.16,-148.114,-16.999,-145.954,-20.28C-143.794,-23.557,-142.035,-27.038,-140.674,-30.72C-139.317,-34.399,-138.315,-38.197,-137.674,-42.12C-137.037,-46.039,-136.714,-49.838,-136.714,-53.52C-136.714,-55.44,-136.875,-57.679,-137.194,-60.24C-137.516,-62.797,-138.154,-65.16,-139.114,-67.32C-140.074,-69.48,-141.356,-71.317,-142.954,-72.84C-144.555,-74.359,-146.637,-75.12,-149.194,-75.12C-153.675,-75.12,-157.635,-73.279,-161.074,-69.6ZM-191.074,-47.52C-189.075,-54.877,-186.154,-61.759,-182.314,-68.16C-178.474,-74.558,-173.794,-79.958,-168.274,-84.36C-162.754,-88.759,-156.394,-90.96,-149.194,-90.96C-144.717,-90.96,-141.034,-89.917,-138.154,-87.84C-135.274,-85.759,-132.994,-83.119,-131.314,-79.92C-129.634,-76.718,-128.434,-73.2,-127.714,-69.36C-126.994,-65.52,-126.634,-61.759,-126.634,-58.08C-126.634,-52.8,-127.114,-47.479,-128.074,-42.12C-129.034,-36.757,-130.557,-31.598,-132.634,-26.64C-134.715,-21.679,-137.355,-17.04,-140.554,-12.72C-143.756,-8.4,-147.675,-4.718,-152.314,-1.68C-155.037,0.079,-157.995,1.56,-161.194,2.76C-164.396,3.96,-167.674,4.56,-171.034,4.56C-175.354,4.56,-178.995,3.559,-181.954,1.56C-184.916,-0.439,-187.275,-2.959,-189.034,-6C-190.797,-9.038,-192.075,-12.48,-192.874,-16.32C-193.676,-20.16,-194.074,-23.839,-194.074,-27.36C-194.074,-33.439,-193.077,-40.159,-191.074,-47.52Z" /></g><g id="i29"><path fill="#ffffff" fill-rule="evenodd" d="M-218.075,-136.92C-220.317,-138.6,-223.156,-140.04,-226.595,-141.24C-230.038,-142.44,-233.878,-143.4,-238.115,-144.12C-242.356,-144.84,-246.515,-145.357,-250.595,-145.68C-254.675,-145.999,-258.358,-146.239,-261.635,-146.4C-264.916,-146.557,-267.436,-146.64,-269.195,-146.64C-270.958,-138,-272.555,-129.319,-273.995,-120.6C-275.435,-111.877,-276.875,-103.2,-278.315,-94.56C-274.475,-95.52,-269.037,-97.039,-261.995,-99.12C-254.956,-101.197,-247.917,-103.8,-240.875,-106.92C-233.836,-110.04,-227.716,-113.599,-222.515,-117.6C-217.317,-121.598,-214.715,-126,-214.715,-130.8C-214.715,-133.2,-215.836,-135.24,-218.075,-136.92ZM-285.275,-53.16C-286.876,-42.997,-287.675,-32.798,-287.675,-22.56C-287.675,-20.959,-287.675,-19.358,-287.675,-17.76C-287.675,-16.32,-287.596,-14.798,-287.435,-13.2C-284.716,-13.358,-281.037,-13.879,-276.395,-14.76C-271.756,-15.638,-266.757,-16.759,-261.395,-18.12C-256.036,-19.478,-250.636,-21.157,-245.195,-23.16C-239.757,-25.159,-234.796,-27.398,-230.315,-29.88C-225.838,-32.359,-222.196,-35.077,-219.395,-38.04C-216.597,-40.999,-215.195,-44.239,-215.195,-47.76C-215.195,-51.6,-216.395,-55.118,-218.795,-58.32C-221.195,-61.519,-224.315,-64.358,-228.155,-66.84C-231.995,-69.319,-236.315,-71.479,-241.115,-73.32C-245.915,-75.158,-250.756,-76.759,-255.635,-78.12C-260.518,-79.477,-265.115,-80.599,-269.435,-81.48C-273.755,-82.358,-277.437,-83.04,-280.475,-83.52C-282.076,-73.44,-283.677,-63.319,-285.275,-53.16ZM-240.515,-84.6C-234.196,-82.597,-228.076,-80.04,-222.155,-76.92C-216.238,-73.8,-211.198,-70.08,-207.035,-65.76C-202.876,-61.44,-200.795,-56.479,-200.795,-50.88C-200.795,-45.439,-202.396,-40.399,-205.595,-35.76C-208.797,-31.117,-212.915,-26.88,-217.955,-23.04C-222.995,-19.2,-228.755,-15.84,-235.235,-12.96C-241.715,-10.08,-248.236,-7.639,-254.795,-5.64C-261.357,-3.637,-267.676,-2.119,-273.755,-1.08C-279.838,-0.038,-285.035,0.48,-289.355,0.48C-290.956,4.639,-292.715,7.238,-294.635,8.28C-296.555,9.319,-299.675,9.84,-303.995,9.84C-305.278,9.84,-306.916,9.637,-308.915,9.24C-310.918,8.839,-311.915,7.759,-311.915,6C-311.915,2.959,-311.795,-0.079,-311.555,-3.12C-311.315,-6.158,-311.037,-9.199,-310.715,-12.24C-310.235,-17.52,-309.755,-22.838,-309.275,-28.2C-308.795,-33.559,-308.236,-38.88,-307.595,-44.16C-305.675,-61.44,-303.358,-78.518,-300.635,-95.4C-297.916,-112.279,-294.717,-129.199,-291.035,-146.16C-294.717,-145.838,-298.317,-145.56,-301.835,-145.32C-305.356,-145.08,-308.877,-144.72,-312.395,-144.24C-313.678,-144.079,-314.915,-143.88,-316.115,-143.64C-317.315,-143.4,-318.552,-143.28,-319.835,-143.28C-322.235,-143.28,-323.435,-144.319,-323.435,-146.4C-323.435,-148.8,-322.273,-150.278,-319.955,-150.84C-317.634,-151.399,-315.594,-151.838,-313.835,-152.16C-309.676,-152.798,-305.518,-153.398,-301.355,-153.96C-297.196,-154.519,-293.038,-154.958,-288.875,-155.28C-287.596,-160.879,-286.156,-166.399,-284.555,-171.84C-282.796,-177.439,-279.035,-181.44,-273.275,-183.84C-270.237,-185.119,-267.275,-185.76,-264.395,-185.76C-263.757,-185.76,-262.918,-185.678,-261.875,-185.52C-260.836,-185.359,-260.315,-184.8,-260.315,-183.84C-260.315,-183.36,-260.476,-182.797,-260.795,-182.16C-262.396,-178.477,-263.637,-174.199,-264.515,-169.32C-265.396,-164.438,-266.236,-159.997,-267.035,-156C-264.635,-156,-261.316,-155.918,-257.075,-155.76C-252.837,-155.599,-248.236,-155.28,-243.275,-154.8C-238.318,-154.32,-233.315,-153.6,-228.275,-152.64C-223.235,-151.68,-218.675,-150.36,-214.595,-148.68C-210.515,-147,-207.155,-144.96,-204.515,-142.56C-201.875,-140.16,-200.555,-137.198,-200.555,-133.68C-200.555,-130.478,-201.556,-127.279,-203.555,-124.08C-205.558,-120.878,-208.198,-117.72,-211.475,-114.6C-214.756,-111.48,-218.397,-108.518,-222.395,-105.72C-226.396,-102.919,-230.476,-100.399,-234.635,-98.16C-238.798,-95.918,-242.795,-93.998,-246.635,-92.4C-250.475,-90.799,-253.756,-89.677,-256.475,-89.04C-252.155,-88.08,-246.837,-86.599,-240.515,-84.6Z" /></g></g></g><g transform="matrix(1.333,0,0,1.355,1213.335,551.925)" id="i1"><g transform="matrix(1,0,0,1,35.693,96.527)" visibility="hidden" id="i30"><animate repeatCount="indefinite" begin="0s" calcMode="discrete" dur="8.001s" values="hidden; visible; visible" keyTimes="0; 0.875023; 1" attributeName="visibility" /><g id="i4"><path fill="#ffffff" fill-rule="evenodd" d="M239.054,-112.44C231.051,-101.64,227.054,-85.118,227.054,-62.88C227.054,-40.478,231.051,-23.917,239.054,-13.2C247.053,-2.479,260.013,2.88,277.934,2.88C296.013,2.88,309.052,-2.479,317.054,-13.2C325.053,-23.917,329.054,-40.478,329.054,-62.88C329.054,-85.118,325.053,-101.64,317.054,-112.44C309.052,-123.24,296.013,-128.64,277.934,-128.64C260.013,-128.64,247.053,-123.24,239.054,-112.44ZM261.974,-12C257.414,-13.92,253.574,-16.999,250.454,-21.24C247.334,-25.478,245.013,-31.039,243.494,-37.92C241.972,-44.798,241.214,-53.119,241.214,-62.88C241.214,-72.638,241.972,-80.918,243.494,-87.72C245.013,-94.519,247.334,-100.039,250.454,-104.28C253.574,-108.518,257.414,-111.6,261.974,-113.52C266.534,-115.44,271.852,-116.4,277.934,-116.4C284.174,-116.4,289.574,-115.44,294.134,-113.52C298.694,-111.6,302.534,-108.518,305.654,-104.28C308.774,-100.039,311.054,-94.519,312.494,-87.72C313.934,-80.918,314.654,-72.638,314.654,-62.88C314.654,-53.119,313.934,-44.798,312.494,-37.92C311.054,-31.039,308.774,-25.478,305.654,-21.24C302.534,-16.999,298.694,-13.92,294.134,-12C289.574,-10.08,284.174,-9.12,277.934,-9.12C271.852,-9.12,266.534,-10.08,261.974,-12Z" /></g><g id="i31"><path fill="#ffffff" fill-rule="evenodd" d="M123.173,-174.24C126.533,-168.319,129.893,-162.72,133.253,-157.44C136.613,-152.16,139.65,-147.439,142.373,-143.28C143.333,-142.159,144.091,-141.518,144.653,-141.36C145.212,-141.199,146.131,-141.12,147.413,-141.12C147.413,-141.12,156.773,-141.12,156.773,-141.12C161.093,-147.038,164.61,-152.28,167.333,-156.84C170.052,-161.4,172.853,-165.998,175.733,-170.64C176.532,-171.919,176.652,-172.838,176.093,-173.4C175.531,-173.959,174.612,-174.24,173.333,-174.24C173.333,-174.24,165.653,-174.24,165.653,-174.24C165.653,-174.24,150.533,-152.4,150.533,-152.4C150.533,-152.4,137.813,-170.88,137.813,-170.88C136.05,-173.119,134.13,-174.24,132.053,-174.24C132.053,-174.24,123.173,-174.24,123.173,-174.24ZM169.253,-110.64C172.771,-110.479,176.933,-110.16,181.733,-109.68C181.733,-109.68,181.733,-25.68,181.733,-25.68C179.813,-23.917,177.612,-22.08,175.133,-20.16C172.65,-18.24,169.771,-16.478,166.493,-14.88C163.212,-13.279,159.612,-11.959,155.693,-10.92C151.77,-9.878,147.413,-9.36,142.613,-9.36C129.811,-9.36,120.893,-13.56,115.853,-21.96C110.813,-30.36,108.293,-42.877,108.293,-59.52C108.293,-70.08,109.29,-78.679,111.293,-85.32C113.292,-91.957,116.333,-97.159,120.413,-100.92C124.493,-104.677,129.533,-107.28,135.533,-108.72C141.533,-110.16,148.531,-110.88,156.533,-110.88C161.491,-110.88,165.732,-110.798,169.253,-110.64ZM195.173,-110.64C195.173,-113.677,194.532,-115.837,193.253,-117.12C191.971,-118.399,189.972,-119.359,187.253,-120C183.413,-120.799,178.572,-121.399,172.733,-121.8C166.891,-122.197,161.491,-122.4,156.533,-122.4C146.453,-122.4,137.573,-121.399,129.893,-119.4C122.213,-117.397,115.771,-113.959,110.573,-109.08C105.372,-104.198,101.412,-97.639,98.693,-89.4C95.971,-81.157,94.613,-70.879,94.613,-58.56C94.613,-49.92,95.333,-41.88,96.773,-34.44C98.213,-27,100.733,-20.558,104.333,-15.12C107.933,-9.679,112.733,-5.4,118.733,-2.28C124.733,0.84,132.21,2.4,141.173,2.4C149.333,2.4,156.773,1.08,163.493,-1.56C170.213,-4.2,176.453,-8.078,182.213,-13.2C182.213,-13.2,182.693,-3.6,182.693,-3.6C182.693,-1.2,183.893,0,186.293,0C186.293,0,195.173,0,195.173,0C195.173,0,195.173,-110.64,195.173,-110.64Z" /></g><g id="i32"><path fill="#ffffff" d="M-15.21,-175.44C-15.21,-177.998,-16.492,-179.28,-19.05,-179.28C-19.05,-179.28,-29.13,-179.28,-29.13,-179.28C-29.13,-179.28,-29.13,-3.84,-29.13,-3.84C-29.13,-1.279,-27.93,0,-25.53,0C-25.53,0,-15.21,0,-15.21,0C-15.21,0,-15.21,-98.88,-15.21,-98.88C-13.613,-100.639,-11.531,-102.559,-8.97,-104.64C-6.412,-106.717,-3.532,-108.638,-0.33,-110.4C2.869,-112.159,6.427,-113.599,10.35,-114.72C14.269,-115.838,18.469,-116.4,22.95,-116.4C31.59,-116.4,38.55,-113.918,43.83,-108.96C49.11,-103.999,51.75,-95.839,51.75,-84.48C51.75,-84.48,51.75,-3.84,51.75,-3.84C51.75,-1.279,52.95,0,55.35,0C55.35,0,65.67,0,65.67,0C65.67,0,65.67,-84.96,65.67,-84.96C65.67,-100.159,62.07,-111.24,54.87,-118.2C47.67,-125.16,38.07,-128.64,26.07,-128.64C15.99,-128.64,7.549,-126.919,0.75,-123.48C-6.052,-120.037,-11.37,-116.239,-15.21,-112.08C-15.21,-112.08,-15.21,-175.44,-15.21,-175.44Z" /></g><g id="i33"><path fill="#ffffff" fill-rule="evenodd" d="M-174.549,-174.24C-171.189,-168.319,-167.829,-162.72,-164.469,-157.44C-161.109,-152.16,-158.072,-147.439,-155.349,-143.28C-154.389,-142.159,-153.631,-141.518,-153.069,-141.36C-152.51,-141.199,-151.591,-141.12,-150.309,-141.12C-150.309,-141.12,-140.949,-141.12,-140.949,-141.12C-136.629,-147.038,-133.112,-152.28,-130.389,-156.84C-127.67,-161.4,-124.869,-165.998,-121.989,-170.64C-121.19,-171.919,-121.07,-172.838,-121.629,-173.4C-122.191,-173.959,-123.11,-174.24,-124.389,-174.24C-124.389,-174.24,-132.069,-174.24,-132.069,-174.24C-132.069,-174.24,-147.189,-152.4,-147.189,-152.4C-147.189,-152.4,-159.909,-170.88,-159.909,-170.88C-161.672,-173.119,-163.592,-174.24,-165.669,-174.24C-165.669,-174.24,-174.549,-174.24,-174.549,-174.24ZM-144.549,-120.72C-142.149,-120.72,-140.949,-119.52,-140.949,-117.12C-140.949,-117.12,-140.949,0,-140.949,0C-140.949,0,-150.789,0,-150.789,0C-153.189,0,-154.389,-1.2,-154.389,-3.6C-154.389,-3.6,-154.389,-120.72,-154.389,-120.72C-154.389,-120.72,-144.549,-120.72,-144.549,-120.72Z" /></g><g id="i34"><path fill="#ffffff" d="M-214.986,0C-214.986,0,-214.986,-169.2,-214.986,-169.2C-214.986,-171.757,-216.269,-173.04,-218.826,-173.04C-218.826,-173.04,-229.146,-173.04,-229.146,-173.04C-229.146,-173.04,-229.146,-27.6,-229.146,-27.6C-232.506,-34.159,-236.507,-41.678,-241.146,-50.16C-245.789,-58.639,-250.746,-67.56,-256.026,-76.92C-261.306,-86.28,-266.668,-95.64,-272.106,-105C-277.547,-114.36,-282.707,-123.199,-287.586,-131.52C-292.468,-139.838,-296.867,-147.278,-300.786,-153.84C-304.709,-160.399,-307.709,-165.517,-309.786,-169.2C-310.589,-170.479,-311.309,-171.439,-311.946,-172.08C-312.587,-172.718,-313.468,-173.04,-314.586,-173.04C-314.586,-173.04,-327.066,-173.04,-327.066,-173.04C-327.066,-173.04,-327.066,-3.84,-327.066,-3.84C-327.066,-1.279,-325.787,0,-323.226,0C-323.226,0,-312.906,0,-312.906,0C-312.906,0,-312.906,-148.8,-312.906,-148.8C-310.506,-145.118,-307.266,-139.759,-303.186,-132.72C-299.106,-125.678,-294.546,-117.72,-289.506,-108.84C-284.466,-99.96,-279.107,-90.559,-273.426,-80.64C-267.748,-70.717,-262.228,-60.997,-256.866,-51.48C-251.507,-41.959,-246.546,-33.038,-241.986,-24.72C-237.426,-16.399,-233.627,-9.439,-230.586,-3.84C-229.307,-1.279,-227.788,0,-226.026,0C-226.026,0,-214.986,0,-214.986,0Z" /></g></g></g><g transform="matrix(1.333,0,0,1.355,1213.335,551.925)" opacity="0" id="i1" /></svg>